<svg width="1200" height="1200" viewBox="0 0 1200 1200" fill="none" xmlns="http://www.w3.org/2000/svg">
<rect width="1200" height="1200" rx="20" fill="#D9D9D9"/>
<path d="M88 472V88H472V216H344L984 856V728H1112V1112H728V984H856L216 344V472H88Z" fill="black"/>
<path d="M472 1112H88L88 728H216V856L856 216H728L728 88L1112 88V472L984 472V344L344 984H472V1112Z" fill="black"/>
<path d="M579.113 600L554.745 554.745L600 579.113L645.255 554.745L620.887 600L645.255 645.255L600 620.887L554.745 645.255L579.113 600Z" fill="white"/>
</svg>
